<svg width="44" height="44" viewBox="0 0 44 44" xmlns="http://www.w3.org/2000/svg"><title>DCB1B83E-8B0F-4BC9-B798-AFDA560B599A</title><g stroke-width="1.3" stroke="#697782" fill="none" fill-rule="evenodd" opacity=".7"><path d="M6.512 11.115A15.5 15.5 0 0 1 5.361 8.11h3.474v1.43c0 1.947.437 3.79 1.21 5.444-1.432-.783-2.602-2.067-3.533-3.869M34.827 9.54V8.11h3.474a15.458 15.458 0 0 1-1.152 3.006c-.93 1.802-2.1 3.086-3.531 3.87a12.84 12.84 0 0 0 1.21-5.445m7.788-3.194a1.953 1.953 0 0 0-1.94-2.139h-5.849v-2.6H8.835v2.6H2.987a1.951 1.951 0 0 0-1.941 2.139c.985 10.191 7.472 13.024 17.368 15.64 2.27 4.619.3 9.893-3.367 10.722a1.297 1.297 0 0 0-1.014 1.268v1.445H29.63v-1.445c0-.61-.42-1.134-1.014-1.268-3.667-.829-5.638-6.103-3.367-10.722 9.896-2.616 16.383-5.449 17.368-15.64" fill="#FAFBFC"/><path d="M34.827 41.923a1.3 1.3 0 0 1-1.3 1.301H10.134a1.3 1.3 0 0 1-1.3-1.3V36.72a1.3 1.3 0 0 1 1.3-1.3h23.393a1.3 1.3 0 0 1 1.3 1.3v5.202z" fill="#FAFBFC"/><path d="M38.02 27.69a.065.065 0 0 0 .056-.065v-.016a.065.065 0 0 0-.055-.064c-1.81-.272-2.85-1.313-3.121-3.123a.065.065 0 0 0-.065-.056h-.016a.065.065 0 0 0-.064.056c-.272 1.81-1.312 2.851-3.122 3.123a.066.066 0 0 0-.055.064v.016c0 .033.023.06.056.065 1.81.272 2.85 1.313 3.12 3.124a.065.065 0 0 0 .065.055h.023c.028 0 .052-.02.057-.049.27-1.815 1.31-2.858 3.122-3.13m-26.026-.907a.104.104 0 0 0 .089-.103v-.027a.104.104 0 0 0-.089-.102c-2.895-.435-4.56-2.101-4.994-4.998a.103.103 0 0 0-.103-.089h-.026a.104.104 0 0 0-.103.09c-.434 2.896-2.098 4.562-4.994 4.997a.104.104 0 0 0-.088.102v.027c0 .051.037.095.088.103 2.896.434 4.56 2.1 4.994 4.998.008.05.052.088.103.088h.038A.09.09 0 0 0 7 31.79c.432-2.903 2.096-4.573 4.995-5.008" fill="#FFF" opacity=".7"/></g></svg>