<svg width="45" height="47" viewBox="0 0 45 47" xmlns="http://www.w3.org/2000/svg"><title>D5CA3137-8366-49EC-BCD1-B1C134E0747E</title><g stroke-width="1.3" fill="none" fill-rule="evenodd" opacity=".7"><path d="M10.727 39.858s2.428-6.678-1.565-11.184a.642.642 0 0 1 .006-.86c1.378-1.507 3.826-1.475 7.342 4.974.918 1.683 2.833 1.593 4.498.643 3.167-1.808 7.737-7.568 12.53-6.166a.642.642 0 0 1 .273 1.072L17.153 45l-6.426-5.142z" stroke="#2897C5" fill="#FFF"/><path d="M44 26.25c0 .414-.294.75-.656.75H2.656C2.294 27 2 26.664 2 26.25v-1.5c0-.414.294-.75.656-.75h40.688c.362 0 .656.336.656.75v1.5z" stroke="#697782" fill="#FCFCFD"/><path d="M23 3.916A25.5 25.5 0 0 1 25 4V1.729c0-.402-.299-.729-.667-.729h-2.666c-.368 0-.667.327-.667.729V4a25.5 25.5 0 0 1 2-.084M5.003 22S4.36 4 23 4s17.997 18 17.997 18" stroke="#697782" fill="#FFF"/><path d="M14.265 43.005L17.51 46H2l8.236-6.71.563.519c.409-1.356 1.84-7.08-1.661-11.103a.664.664 0 0 1 .006-.876c1.38-1.536 3.83-1.503 7.35 5.069.918 1.715 2.835 1.624 4.502.655 3.17-1.843 7.743-7.713 12.542-6.283a.65.65 0 0 1 .442.466.664.664 0 0 1-.169.626L17.136 45.345l-2.871-2.34z" stroke="#697782" fill="#FAFBFC"/></g></svg>