<svg xmlns="http://www.w3.org/2000/svg" width="50" height="50" viewBox="0 0 50 50" xmlns:xlink="http://www.w3.org/1999/xlink"><defs><path id="b" d="M30 2H18v4h12V2zm-8 26h4V16h-4v12zm16.06-13.22l2.84-2.84c-.86-1.02-1.8-1.98-2.82-2.82l-2.84 2.84C32.14 9.48 28.24 8 24 8 14.06 8 6 16.06 6 26s8.04 18 18 18 18-8.06 18-18c0-4.24-1.48-8.14-3.94-11.22zM24 40c-7.74 0-14-6.26-14-14s6.26-14 14-14 14 6.26 14 14-6.26 14-14 14z"/><filter id="a" width="200%" height="200%" x="-50%" y="-50%" filterUnits="objectBoundingBox"><feOffset dy="2" in="SourceAlpha" result="shadowOffsetOuter1"/><feGaussianBlur stdDeviation="1" in="shadowOffsetOuter1" result="shadowBlurOuter1"/><feColorMatrix values="0 0 0 0 0 0 0 0 0 0 0 0 0 0 0 0 0 0 0.1 0" in="shadowBlurOuter1"/></filter></defs><g fill="none" fill-rule="evenodd" transform="translate(1 1)"><path stroke="#000" stroke-opacity=".008" stroke-width=".5" d="M0 0h48v48H0z"/><use fill="#000" filter="url(#a)" xlink:href="#b"/><use fill="#FFF" xlink:href="#b"/></g></svg>