<svg xmlns="http://www.w3.org/2000/svg" width="60" height="61" viewBox="0 0 60 61" xmlns:xlink="http://www.w3.org/1999/xlink"><defs><path id="b" d="M29 14.5v7.25l9.667-9.667L29 2.417v7.25C18.318 9.667 9.667 18.318 9.667 29c0 3.794 1.111 7.322 2.996 10.295l3.529-3.528A14.187 14.187 0 0 1 14.5 29c0-8 6.5-14.5 14.5-14.5zm16.337 4.205l-3.529 3.528C42.872 24.263 43.5 26.56 43.5 29c0 8-6.5 14.5-14.5 14.5v-7.25l-9.667 9.667L29 55.583v-7.25c10.682 0 19.333-8.651 19.333-19.333 0-3.794-1.111-7.323-2.996-10.295z"/><filter id="a" width="200%" height="200%" x="-50%" y="-50%" filterUnits="objectBoundingBox"><feOffset dy="2" in="SourceAlpha" result="shadowOffsetOuter1"/><feGaussianBlur stdDeviation="1" in="shadowOffsetOuter1" result="shadowBlurOuter1"/><feColorMatrix values="0 0 0 0 0 0 0 0 0 0 0 0 0 0 0 0 0 0 0.1 0" in="shadowBlurOuter1"/></filter></defs><g fill="none" fill-rule="evenodd" transform="translate(1 1)"><path stroke="#000" stroke-opacity=".008" stroke-width=".5" d="M0 0h58v58H0z"/><use fill="#000" filter="url(#a)" xlink:href="#b"/><use fill="#FFF" xlink:href="#b"/></g></svg>