<svg width="26" height="26" viewBox="0 0 26 26" xmlns="http://www.w3.org/2000/svg"><title>Combined Shape</title><path d="M13 0C5.832 0 0 5.832 0 13c0 7.169 5.832 13 13 13 7.167 0 13-5.831 13-13 0-7.168-5.833-13-13-13zm0 25.404C6.16 25.404.596 19.84.596 13S6.16.596 13 .596C19.839.596 25.403 6.16 25.403 13S19.839 25.404 13 25.404zM1.86 13.007c0 4.412 2.572 8.225 6.302 10.031L2.828 8.472a11.073 11.073 0 0 0-.968 4.535zm18.662-.554c0-1.379-.495-2.334-.919-3.077-.565-.919-1.095-1.697-1.095-2.616 0-1.026.777-1.98 1.872-1.98.05 0 .096.006.145.008a11.1 11.1 0 0 0-7.527-2.928c-3.894 0-7.32 2-9.313 5.028.261.008.508.014.717.014 1.166 0 2.97-.142 2.97-.142.601-.035.672.848.072.92 0 0-.604.07-1.276.106l4.06 12.084 2.439-7.322-1.737-4.763a20.29 20.29 0 0 1-1.169-.106c-.6-.036-.53-.955.07-.92 0 0 1.841.142 2.937.142 1.165 0 2.97-.141 2.97-.141.601-.036.672.848.072.919 0 0-.606.07-1.276.106l4.028 11.993 1.112-3.718c.481-1.544.848-2.652.848-3.607zm-7.327 1.528L9.849 23.72a11.133 11.133 0 0 0 6.853-.178.981.981 0 0 1-.08-.154l-3.427-9.407zm9.58-6.336c.047.355.075.736.075 1.146 0 1.13-.212 2.402-.848 3.992l-3.406 9.842a11.137 11.137 0 0 0 5.544-9.633c0-1.937-.495-3.76-1.365-5.347z" fill="#FFF" fill-rule="evenodd"/></svg>