<svg width="350" height="350" viewBox="0 0 350 350" xmlns="http://www.w3.org/2000/svg" xmlns:xlink="http://www.w3.org/1999/xlink"><title>illus-relevant</title><defs><path id="b" d="M112.334.071H21.228L.473 14.944v37.837h126.978V14.944z"/><path id="a" d="M112.334.071H21.228L.473 14.944v37.837h124.978V16.944z"/><mask id="d" x="0" y="0" width="124.978" height="52.71" fill="#fff"><use xlink:href="#a"/></mask><path id="e" d="M.597.209h19.607v42.435H.597z"/><path d="M46.488 94.96c8.906 14.91 20.527 25.856 38.695 25.856 18.373 0 32.394-10.835 41.652-26.148 8.782-2.386 26.73-8.78 34.255-22.554 10.15-18.581 10.663-59.17 10.663-59.17l-25.411.448-2.557.046c.067-2.248.097-4.271.097-6.014 0-8.462-116.176-9.026-116.176 0 0 1.735.03 3.755.097 6.002l-1.925-.034-25.411-.449s.512 40.59 10.663 59.17C18.986 86.494 38.2 92.83 46.488 94.96zM37.87 77.52c-5.47-14.602-8.194-34.973-9.382-51.082l-3.362-.06-10.71-.188s-.63 25.098 7.4 39.485C26.061 73.282 32.404 76.33 37.87 77.52zm96.802-.072c4.81-14.824 7.326-35.012 8.451-50.999l3.971-.07 10.71-.19s.63 25.1-7.4 39.486c-4.162 7.458-10.341 10.534-15.732 11.773zm-48.878 90.188c14.675 0 43.566-2.538 43.566-5.923 0-6.75-15.209-13.393-27.046-16.75l-7.264-9.154s-2.68 2.448-9.256 2.448c-6.576 0-8.759-2.448-8.759-2.448l-8.07 9.153c-11.849 4.173-26.737 9.597-26.737 16.75 0 3.386 29.197 5.924 43.566 5.924z" id="g"/><path id="i" d="M.473.279h125.273v36.292H.473z"/></defs><g fill="none" fill-rule="evenodd"><path d="M175.246 347.014c-95.203 0-172.384-77.233-172.384-172.507C2.862 79.237 80.043 2 175.246 2c95.204 0 172.385 77.236 172.385 172.507 0 95.274-77.181 172.507-172.385 172.507z" stroke-opacity=".333" stroke="#2897C5" stroke-width="4" fill="#FFF"/><g transform="translate(108.81 223.266)"><mask id="c" fill="#fff"><use xlink:href="#b"/></mask><g mask="url(#c)" stroke="#2897C5" stroke-width="4" fill="#FFF"><use mask="url(#d)" xlink:href="#a"/></g></g><g transform="translate(165.065 182.392)"><mask id="f" fill="#fff"><use xlink:href="#e"/></mask><g mask="url(#f)" stroke="#2897C5" stroke-width="5" fill="#F2F9FB"><path d="M.597.209h19.607v42.435H.597z"/></g></g><g transform="translate(89.682 69.527)"><mask id="h" fill="#fff"><use xlink:href="#g"/></mask><g mask="url(#h)" stroke="#2897C5" stroke-width="6" fill="#FFF"><path d="M46.488 94.96c8.906 14.91 20.527 25.856 38.695 25.856 18.373 0 32.394-10.835 41.652-26.148 8.782-2.386 26.73-8.78 34.255-22.554 10.15-18.581 10.663-59.17 10.663-59.17l-25.411.448-2.557.046c.067-2.248.097-4.271.097-6.014 0-8.462-116.176-9.026-116.176 0 0 1.735.03 3.755.097 6.002l-1.925-.034-25.411-.449s.512 40.59 10.663 59.17C18.986 86.494 38.2 92.83 46.488 94.96zM37.87 77.52c-5.47-14.602-8.194-34.973-9.382-51.082l-3.362-.06-10.71-.188s-.63 25.098 7.4 39.485C26.061 73.282 32.404 76.33 37.87 77.52zm96.802-.072c4.81-14.824 7.326-35.012 8.451-50.999l3.971-.07 10.71-.19s.63 25.1-7.4 39.486c-4.162 7.458-10.341 10.534-15.732 11.773zm-48.878 90.188c14.675 0 43.566-2.538 43.566-5.923 0-6.75-15.209-13.393-27.046-16.75l-7.264-9.154s-2.68 2.448-9.256 2.448c-6.576 0-8.759-2.448-8.759-2.448l-8.07 9.153c-11.849 4.173-26.737 9.597-26.737 16.75 0 3.386 29.197 5.924 43.566 5.924z"/></g></g><path d="M154.894 167.325c5.568 0 7.91-38.423 6.567-56.195s.572-22.914-13.36-22.914c-13.93 0-14.695 4.431-12.68 22.914 2.013 18.483 13.906 56.195 19.473 56.195z" fill="#FFF"/><path d="M174.902 81.624c31.063 0 56.245-2.511 56.245-4.853 0-2.342-25.182-4.652-56.245-4.652s-56.245 2.31-56.245 4.652 25.182 4.853 56.245 4.853z" stroke="#2897C5" stroke-width="2" fill="#F2F9FB"/><path stroke="#FE336F" stroke-width="3" fill="#FFF" d="M177.459 140.019l-18.434 9.006 3.522-19.072-14.915-13.505 20.61-2.781 9.217-17.353 9.216 17.353 20.61 2.78-14.914 13.506 3.522 19.072z"/><g transform="translate(108.81 239.476)"><mask id="j" fill="#fff"><use xlink:href="#i"/></mask><g mask="url(#j)" stroke="#2897C5" stroke-width="3"><path d="M.473.279h125.273v36.292H.473z"/></g></g></g></svg>