<svg width="350" height="350" viewBox="0 0 350 350" xmlns="http://www.w3.org/2000/svg"><title>illus-analytics</title><g fill="none" fill-rule="evenodd"><path d="M347.16 175.452c0 95.274-77.182 172.507-172.385 172.507-95.203 0-172.384-77.233-172.384-172.507C2.39 80.18 79.57 2.945 174.775 2.945c95.203 0 172.385 77.236 172.385 172.507" stroke-opacity=".333" stroke="#2897C5" stroke-width="4" fill="#FFF"/><path stroke="#FE336F" stroke-width="3" fill="#FFF" d="M200.291 182.74H162.68v84.685h37.611zm-56.417 31.365h-37.61v50.184h37.61zM256.708 110.6h-37.611v153.69h37.61z"/><path d="M87.456 264.289V82.372a6.273 6.273 0 0 0-6.268-6.273 6.273 6.273 0 0 0-6.269 6.273v194.463h194.325a6.273 6.273 0 0 0 0-12.546H87.456z" stroke="#FFF" stroke-width="4" fill="#FFF"/><path d="M87.456 264.289V82.372a6.273 6.273 0 0 0-6.268-6.273 6.273 6.273 0 0 0-6.269 6.273v194.463h194.325a6.273 6.273 0 0 0 0-12.546H87.456z" stroke="#2897C5" stroke-width="3" fill="#FCFCFD"/><path d="M223.08 144.051c1.264-28.576-20.858-52.768-49.417-54.032-28.553-1.267-52.728 20.873-53.991 49.45a51.57 51.57 0 0 0 5.115 24.863l-44.814 44.959c3.605 10.767 10.789 17.94 21.558 21.519l44.043-44.187a51.443 51.443 0 0 0 23.51 6.882c28.559 1.26 52.734-20.877 53.997-49.454" stroke="#FFF" stroke-width="4"/><path d="M223.08 144.051c1.264-28.576-20.858-52.768-49.417-54.032-28.553-1.267-52.728 20.873-53.991 49.45a51.57 51.57 0 0 0 5.115 24.863l-44.814 44.959c3.605 10.767 10.789 17.94 21.558 21.519l44.043-44.187a51.443 51.443 0 0 0 23.51 6.882c28.559 1.26 52.734-20.877 53.997-49.454" stroke="#2897C5" stroke-width="3" fill="#F2F9FB"/><path d="M208.306 143.396c-.903 20.413-18.17 36.227-38.567 35.323-20.395-.903-36.198-18.185-35.295-38.594.903-20.412 18.17-36.227 38.567-35.323 20.398.903 36.2 18.182 35.295 38.594" stroke="#2897C5" stroke-width="3" fill="#FCFCFD"/><path d="M124.786 164.332L79.972 209.29c3.605 10.768 10.792 17.94 21.561 21.52l44.04-44.187c-8.99-5.185-16.261-12.957-20.787-22.291" stroke="#2897C5" stroke-width="3" fill="#F2F9FB"/><path d="M136.06 196.168l9.512-9.544c-8.99-5.188-16.26-12.96-20.787-22.291l-10.283 10.319 21.557 21.516z" stroke="#2897C5" stroke-width="3" fill="#FCFCFD"/></g></svg>