<svg width="350" height="350" viewBox="0 0 350 350" xmlns="http://www.w3.org/2000/svg"><title>illus-autocomplete</title><g fill="none" fill-rule="evenodd"><path d="M347.708 175.33c0 95.275-77.181 172.508-172.385 172.508C80.12 347.838 2.94 270.605 2.94 175.33 2.939 80.06 80.12 2.823 175.323 2.823c95.204 0 172.385 77.237 172.385 172.508" stroke-opacity=".333" stroke="#2897C5" stroke-width="4" fill="#FFF"/><path d="M123.608 241.973s11.841-32.588-7.635-54.578a3.136 3.136 0 0 1 .031-4.194c6.723-7.355 18.662-7.198 35.812 24.27 4.48 8.215 13.82 7.776 21.94 3.137 15.446-8.823 37.737-36.929 61.118-30.085a3.132 3.132 0 0 1 1.332 5.228l-81.255 81.314-31.343-25.092z" stroke="#2897C5" fill="#FFF"/><path d="M280.321 176.107a3.137 3.137 0 0 1-3.134 3.136H82.863a3.137 3.137 0 0 1-3.135-3.136v-6.273a3.137 3.137 0 0 1 3.135-3.137h194.324a3.137 3.137 0 0 1 3.134 3.137v6.273z" stroke="#2897C5" stroke-width="3" fill="#FCFCFD"/><path d="M180.025 69.229c3.266 0 6.375.144 9.403.36v-9.77a3.137 3.137 0 0 0-3.135-3.136h-12.537a3.137 3.137 0 0 0-3.134 3.136v9.77c3.028-.216 6.137-.36 9.403-.36" stroke="#FE336F" stroke-width="3" fill="#FFF"/><path d="M92.265 157.05s-3.134-87.821 87.76-87.821c90.893 0 87.76 87.821 87.76 87.821" stroke="#FE336F" stroke-width="3" fill="#FFF"/><path d="M140.957 255.862l15.82 14.34H81.19l40.137-32.132 2.744 2.487c1.989-6.49 8.967-33.895-8.098-53.162a3.136 3.136 0 0 1 .031-4.194c6.723-7.355 18.662-7.198 35.812 24.27 4.48 8.215 13.82 7.776 21.94 3.137 15.446-8.823 37.737-36.929 61.118-30.085a3.132 3.132 0 0 1 1.332 5.228l-81.255 81.314-13.994-11.203z" stroke="#2897C5" stroke-width="3" fill="#F2F9FB"/></g></svg>