<svg width="350" height="350" viewBox="0 0 350 350" xmlns="http://www.w3.org/2000/svg"><title>illus-sync</title><g fill="none" fill-rule="evenodd"><path d="M175.267 347.136c-95.203 0-172.384-77.233-172.384-172.507C2.883 79.357 80.064 2.12 175.267 2.12c95.204 0 172.385 77.236 172.385 172.508 0 95.274-77.181 172.507-172.385 172.507z" stroke-opacity=".333" stroke="#2897C5" stroke-width="4" fill="#FFF"/><path d="M231.935 180.31c0-9.905-6.052-18.367-14.618-21.85-6.782-16.774-17.746-23.59-31.172-23.59-12.62 0-23.557 7.266-28.918 17.902-8.535-3.672-18.154 2.428-18.51 11.872-7.77 2.77-13.346 10.233-13.346 19.03 0 11.156 8.945 20.198 19.979 20.198h66.606s19.98-3.745 19.98-23.562" stroke="#FE336F" stroke-width="3" fill="#FFF"/><path d="M121.485 228.36c-17.328-16.623-26.002-39.818-23.8-63.627 3.985-43.035 42.437-74.82 85.713-70.862l-1.442 15.612 49.98-26.909-44.199-35.527-1.446 15.608c-60.593-5.544-114.423 38.956-120 99.205-3.085 33.332 9.053 65.795 33.302 89.06l21.892-22.56zm108.067-111.705c17.329 16.623 26.003 39.817 23.8 63.627-3.985 43.035-42.437 74.823-85.713 70.861l1.443-15.612-49.98 26.91 44.198 35.526 1.446-15.608c60.593 5.545 114.423-38.955 120-99.2 3.085-33.333-9.053-65.795-33.302-89.064l-21.892 22.56z" stroke="#2897C5" stroke-width="3" fill="#F2F9FB"/></g></svg>