<svg width="350" height="350" viewBox="0 0 350 350" xmlns="http://www.w3.org/2000/svg" xmlns:xlink="http://www.w3.org/1999/xlink"><title>illus-developer</title><defs><path id="a" d="M28.13.586l3.213 4.976L5.777 21.01l25.566 15.523-3.5 4.827L0 24.184v-6.421z"/><path id="c" d="M32.282 18.076v6.436L4.438 41.674.94 36.847l25.566-15.523L.939 5.89 4.152.9z"/><path id="e" d="M5.257 65.866l-5.098-2.38L29.609 0l5.027 2.514z"/></defs><g fill="none" fill-rule="evenodd"><path d="M347.256 175.33c0 95.275-77.181 172.508-172.384 172.508-95.204 0-172.385-77.233-172.385-172.507C2.487 80.06 79.668 2.823 174.872 2.823c95.203 0 172.384 77.237 172.384 172.508" stroke-opacity=".333" stroke="#2897C5" stroke-width="4" fill="#FFF"/><path d="M275.608 230.933c0 5.04-4.08 9.124-9.117 9.124H84.133c-5.037 0-9.118-4.084-9.118-9.124v-127.74c0-5.04 4.081-9.127 9.118-9.127H266.49c5.036 0 9.117 4.086 9.117 9.127v127.74zm-72.942 32.505h-54.708v-23.38h54.708zm18.234 4.563a4.56 4.56 0 0 1-4.56 4.56h-82.058a4.562 4.562 0 0 1 0-9.123h82.058A4.56 4.56 0 0 1 220.9 268" stroke="#2897C5" stroke-width="3" fill="#FCFCFD"/><path d="M275.608 230.933V203.56H75.015v27.372c0 5.04 4.084 9.124 9.118 9.124H266.49c5.036 0 9.117-4.084 9.117-9.124" stroke="#2897C5" stroke-width="3" fill="#F2F9FB"/><path d="M175.312 232.992c-5.848 0-10.608-4.763-10.608-10.615 0-5.851 4.76-10.614 10.608-10.614 5.85 0 10.607 4.763 10.607 10.614 0 5.852-4.757 10.615-10.607 10.615" stroke="#2897C5" stroke-width="3" fill="#FCFCFD"/><g transform="translate(118.455 127.697)"><mask id="b" fill="#fff"><use xlink:href="#a"/></mask><g mask="url(#b)" stroke-width="3" stroke="#FE336F" fill="#FFF"><path d="M28.13.586l3.213 4.976L5.777 21.01l25.566 15.523-3.5 4.827L0 24.184v-6.421z"/></g></g><g transform="translate(205.275 130.52)"><mask id="d" fill="#fff"><use xlink:href="#c"/></mask><g mask="url(#d)" stroke-width="3" stroke="#FE336F" fill="#FFF"><path d="M32.282 18.076v6.436L4.438 41.674.94 36.847l25.566-15.523L.939 5.89 4.152.9z"/></g></g><g transform="translate(159.042 118.874)"><mask id="f" fill="#fff"><use xlink:href="#e"/></mask><g mask="url(#f)" stroke-width="3" stroke="#FE336F" fill="#FFF"><path d="M5.257 65.866l-5.098-2.38L29.609 0l5.027 2.514z"/></g></g></g></svg>