<svg xmlns="http://www.w3.org/2000/svg" width="429" height="309" viewBox="0 0 429 309" xmlns:xlink="http://www.w3.org/1999/xlink"><defs><rect id="a" width="423" height="41" rx="4"/><filter id="c" width="200%" height="200%" x="-50%" y="-50%" filterUnits="objectBoundingBox"><feMorphology radius="1" operator="dilate" in="SourceAlpha" result="shadowSpreadOuter1"/><feOffset dy="2" in="shadowSpreadOuter1" result="shadowOffsetOuter1"/><feGaussianBlur stdDeviation="1" in="shadowOffsetOuter1" result="shadowBlurOuter1"/><feComposite in="shadowBlurOuter1" in2="SourceAlpha" operator="out" result="shadowBlurOuter1"/><feColorMatrix values="0 0 0 0 0 0 0 0 0 0 0 0 0 0 0 0 0 0 0.1 0" in="shadowBlurOuter1"/></filter><mask id="d" width="425" height="43" x="-1" y="-1"><path fill="#fff" d="M-1-1h425v43H-1z"/><use xlink:href="#a"/></mask><rect id="b" width="423" height="254" rx="4"/><filter id="e" width="200%" height="200%" x="-50%" y="-50%" filterUnits="objectBoundingBox"><feMorphology radius="1" operator="dilate" in="SourceAlpha" result="shadowSpreadOuter1"/><feOffset dy="2" in="shadowSpreadOuter1" result="shadowOffsetOuter1"/><feGaussianBlur stdDeviation="1" in="shadowOffsetOuter1" result="shadowBlurOuter1"/><feComposite in="shadowBlurOuter1" in2="SourceAlpha" operator="out" result="shadowBlurOuter1"/><feColorMatrix values="0 0 0 0 0 0 0 0 0 0 0 0 0 0 0 0 0 0 0.1 0" in="shadowBlurOuter1"/></filter><mask id="f" width="425" height="256" x="-1" y="-1"><path fill="#fff" d="M-1-1h425v256H-1z"/><use xlink:href="#b"/></mask></defs><g fill="none" fill-rule="evenodd" transform="translate(3 1)"><use fill="#000" filter="url(#c)" xlink:href="#a"/><use fill="#FFF" xlink:href="#a"/><use stroke="#D8D9DE" stroke-width="2" mask="url(#d)" xlink:href="#a"/><path fill="#697782" stroke="#697782" d="M396.927 20.5l-4.64-4.641-.287-.286.573-.573.286.286 4.641 4.641 4.641-4.64.286-.287.573.573-.286.286-4.641 4.641 4.64 4.641.287.286-.573.573-.286-.286-4.641-4.641-4.641 4.64-.286.287-.573-.573.286-.286 4.641-4.641z" opacity=".5"/><path fill="#697782" d="M28.15 22.692h-.768l-.272-.263a6.29 6.29 0 0 0 1.526-4.111 6.318 6.318 0 1 0-6.318 6.318 6.29 6.29 0 0 0 4.111-1.526l.263.272v.768l4.86 4.85L33 27.552l-4.85-4.86zm-5.832 0a4.368 4.368 0 0 1-4.374-4.374 4.368 4.368 0 0 1 4.374-4.374 4.368 4.368 0 0 1 4.374 4.374 4.368 4.368 0 0 1-4.374 4.374z" opacity=".5"/><text fill="#262626" font-family="'Open Sans', Open Sans, OpenSans, sans-serif" font-size="15"><tspan x="45" y="26">Gi</tspan></text><g transform="translate(0 49)"><use fill="#000" filter="url(#e)" xlink:href="#b"/><use fill="#FFF" xlink:href="#b"/><use stroke="#D8D9DE" stroke-width="2" mask="url(#f)" xlink:href="#b"/><g transform="translate(16 13)"><rect width="15" height="15" y="2" fill="#16ABE9" opacity=".2" rx="1"/><rect width="15" height="15" y="32" fill="#16ABE9" opacity=".2" rx="1"/><rect width="15" height="15" y="62" fill="#16ABE9" opacity=".2" rx="1"/><rect width="15" height="15" y="92" fill="#16ABE9" opacity=".2" rx="1"/><rect width="15" height="15" y="122" fill="#16ABE9" opacity=".2" rx="1"/><rect width="15" height="15" y="152" fill="#16ABE9" opacity=".2" rx="1"/><rect width="15" height="15" y="182" fill="#16ABE9" opacity=".2" rx="1"/><rect width="15" height="15" x="163" y="212" fill="#16ABE9" opacity=".2" rx="1"/><text font-family="'Open Sans', Open Sans, OpenSans, sans-serif" font-size="14"><tspan x="1" y="15" fill="#24B3E4">Gi</tspan> <tspan x="14.733" y="15" fill="#262626">rl </tspan> <tspan x="27.626" y="15" fill="#323333" fill-opacity=".5">- Jamie XX</tspan></text><text font-family="'Open Sans', Open Sans, OpenSans, sans-serif" font-size="14"><tspan x="1" y="45" fill="#24B3E4">Gi</tspan> <tspan x="14.733" y="45" fill="#262626">rl </tspan> <tspan x="27.626" y="45" fill="#262626" fill-opacity=".5">- The Internet &amp; KAYTRANADA</tspan></text><text font-family="'Open Sans', Open Sans, OpenSans, sans-serif" font-size="14"><tspan x="1" y="75" fill="#24B3E4">Gi</tspan> <tspan x="14.733" y="75" fill="#262626">mme Shelter</tspan> <tspan x="98.453" y="75" fill="#262626" fill-opacity=".5"> - The Rolling Stones</tspan></text><text font-family="'Open Sans', Open Sans, OpenSans, sans-serif" font-size="14"><tspan x="1" y="105" fill="#24B3E4">Gi</tspan> <tspan x="14.733" y="105" fill="#262626">ve It Up</tspan> <tspan x="64.492" y="105" fill="#262626" fill-opacity=".5"> - J Dilla</tspan></text><text font-family="'Open Sans', Open Sans, OpenSans, sans-serif" font-size="14"><tspan x="1" y="135" fill="#24B3E4">Gi</tspan> <tspan x="14.733" y="135" fill="#262626">rl On Fire</tspan> <tspan x="75.095" y="135" fill="#262626" fill-opacity=".5"> - Alicia Keys</tspan></text><text font-family="'Open Sans', Open Sans, OpenSans, sans-serif" font-size="14"><tspan x="1" y="165" fill="#24B3E4">Gi</tspan> <tspan x="14.733" y="165" fill="#262626">orgio by Moroder</tspan> <tspan x="128.894" y="165" fill="#323333" fill-opacity=".5"> - Daft Punk</tspan></text><text font-family="'Open Sans', Open Sans, OpenSans, sans-serif" font-size="14"><tspan x="1" y="195" fill="#24B3E4">Gi</tspan> <tspan x="14.733" y="195" fill="#262626">ve It Away </tspan> <tspan x="83.947" y="195" fill="#262626" fill-opacity=".5">- Red Hot Chili Peppers</tspan></text><text font-family="'Open Sans', Open Sans, OpenSans, sans-serif" font-size="14"><tspan x="1" y="225" fill="#262626">This Song Is Not About a </tspan> <tspan x="163.531" y="225" fill="#24B3E4">Gi</tspan> <tspan x="177.265" y="225" fill="#262626">rl </tspan> <tspan x="190.157" y="225" fill="#262626" fill-opacity=".5">- Chet Faker</tspan></text></g><g opacity=".8"><path stroke="#000" stroke-opacity=".008" stroke-width=".5" d="M391 15h16v16h-16z"/><path fill="#FF5656" d="M399 29.233l-.967-.88c-3.433-3.113-5.7-5.166-5.7-7.686A3.631 3.631 0 0 1 396 17c1.16 0 2.273.54 3 1.393A3.992 3.992 0 0 1 402 17a3.631 3.631 0 0 1 3.667 3.667c0 2.52-2.267 4.573-5.7 7.693l-.967.873z"/></g><text fill="#323333" fill-opacity=".5" font-family="'Open Sans', Open Sans, OpenSans, sans-serif" font-size="12" transform="translate(345 14)"><tspan x=".523" y="13">24,3 M</tspan></text><g opacity=".8"><path stroke="#000" stroke-opacity=".008" stroke-width=".5" d="M391 45h16v16h-16z"/><path fill="#FF5656" d="M399 59.233l-.967-.88c-3.433-3.113-5.7-5.166-5.7-7.686A3.631 3.631 0 0 1 396 47c1.16 0 2.273.54 3 1.393A3.992 3.992 0 0 1 402 47a3.631 3.631 0 0 1 3.667 3.667c0 2.52-2.267 4.573-5.7 7.693l-.967.873z"/></g><text fill="#323333" fill-opacity=".5" font-family="'Open Sans', Open Sans, OpenSans, sans-serif" font-size="12" transform="translate(345 44)"><tspan x=".523" y="13">13,1 M</tspan></text><g opacity=".8"><path stroke="#000" stroke-opacity=".008" stroke-width=".5" d="M391 75h16v16h-16z"/><path fill="#FF5656" d="M399 89.233l-.967-.88c-3.433-3.113-5.7-5.166-5.7-7.686A3.631 3.631 0 0 1 396 77c1.16 0 2.273.54 3 1.393A3.992 3.992 0 0 1 402 77a3.631 3.631 0 0 1 3.667 3.667c0 2.52-2.267 4.573-5.7 7.693l-.967.873z"/></g><text fill="#323333" fill-opacity=".5" font-family="'Open Sans', Open Sans, OpenSans, sans-serif" font-size="12" transform="translate(352 74)"><tspan x=".385" y="13">3,8 M</tspan></text><g opacity=".8"><path stroke="#000" stroke-opacity=".008" stroke-width=".5" d="M391 105h16v16h-16z"/><path fill="#FF5656" d="M399 119.233l-.967-.88c-3.433-3.113-5.7-5.166-5.7-7.686A3.631 3.631 0 0 1 396 107c1.16 0 2.273.54 3 1.393a3.992 3.992 0 0 1 3-1.393 3.631 3.631 0 0 1 3.667 3.667c0 2.52-2.267 4.573-5.7 7.693l-.967.873z"/></g><text fill="#323333" fill-opacity=".5" font-family="'Open Sans', Open Sans, OpenSans, sans-serif" font-size="12" transform="translate(342 104)"><tspan x=".131" y="13">984,7 K</tspan></text><g opacity=".8"><path stroke="#000" stroke-opacity=".008" stroke-width=".5" d="M391 135h16v16h-16z"/><path fill="#FF5656" d="M399 149.233l-.967-.88c-3.433-3.113-5.7-5.166-5.7-7.686A3.631 3.631 0 0 1 396 137c1.16 0 2.273.54 3 1.393a3.992 3.992 0 0 1 3-1.393 3.631 3.631 0 0 1 3.667 3.667c0 2.52-2.267 4.573-5.7 7.693l-.967.873z"/></g><text fill="#323333" fill-opacity=".5" font-family="'Open Sans', Open Sans, OpenSans, sans-serif" font-size="12" transform="translate(342 134)"><tspan x=".131" y="13">856,2 K</tspan></text><g opacity=".8"><path stroke="#000" stroke-opacity=".008" stroke-width=".5" d="M391 165h16v16h-16z"/><path fill="#FF5656" d="M399 179.233l-.967-.88c-3.433-3.113-5.7-5.166-5.7-7.686A3.631 3.631 0 0 1 396 167c1.16 0 2.273.54 3 1.393a3.992 3.992 0 0 1 3-1.393 3.631 3.631 0 0 1 3.667 3.667c0 2.52-2.267 4.573-5.7 7.693l-.967.873z"/></g><text fill="#323333" fill-opacity=".5" font-family="'Open Sans', Open Sans, OpenSans, sans-serif" font-size="12" transform="translate(351 164)"><tspan x=".934" y="13">788 K</tspan></text><g opacity=".8"><path stroke="#000" stroke-opacity=".008" stroke-width=".5" d="M391 195h16v16h-16z"/><path fill="#FF5656" d="M399 209.233l-.967-.88c-3.433-3.113-5.7-5.166-5.7-7.686A3.631 3.631 0 0 1 396 197c1.16 0 2.273.54 3 1.393a3.992 3.992 0 0 1 3-1.393 3.631 3.631 0 0 1 3.667 3.667c0 2.52-2.267 4.573-5.7 7.693l-.967.873z"/></g><text fill="#323333" fill-opacity=".5" font-family="'Open Sans', Open Sans, OpenSans, sans-serif" font-size="12" transform="translate(342 194)"><tspan x=".131" y="13">651,8 K</tspan></text><g opacity=".8"><path stroke="#000" stroke-opacity=".008" stroke-width=".5" d="M391 225h16v16h-16z"/><path fill="#FF5656" d="M399 239.233l-.967-.88c-3.433-3.113-5.7-5.166-5.7-7.686A3.631 3.631 0 0 1 396 227c1.16 0 2.273.54 3 1.393a3.992 3.992 0 0 1 3-1.393 3.631 3.631 0 0 1 3.667 3.667c0 2.52-2.267 4.573-5.7 7.693l-.967.873z"/></g><text fill="#323333" fill-opacity=".5" font-family="'Open Sans', Open Sans, OpenSans, sans-serif" font-size="12" transform="translate(351 224)"><tspan x=".934" y="13">396 K</tspan></text></g></g></svg>