<svg width="378" height="567" viewBox="0 0 378 567" xmlns="http://www.w3.org/2000/svg" xmlns:xlink="http://www.w3.org/1999/xlink"><title>Group 18</title><defs><rect id="h" width="298" height="487" rx="4"/><filter x="-50%" y="-50%" width="200%" height="200%" filterUnits="objectBoundingBox" id="g"><feOffset in="SourceAlpha" result="shadowOffsetOuter1"/><feGaussianBlur stdDeviation="20" in="shadowOffsetOuter1" result="shadowBlurOuter1"/><feColorMatrix values="0 0 0 0 0 0 0 0 0 0 0 0 0 0 0 0 0 0 0.627321105 0" in="shadowBlurOuter1"/></filter><rect id="a" width="261" height="39" rx="3"/><mask id="i" x="-1" y="-1" width="263" height="41"><path fill="#fff" d="M-1-1h263v41H-1z"/><use xlink:href="#a"/></mask><rect id="b" width="261" height="39" rx="3"/><mask id="k" x="-1" y="-1" width="263" height="41"><path fill="#fff" d="M-1-1h263v41H-1z"/><use xlink:href="#b"/></mask><rect id="c" width="261" height="39" rx="3"/><mask id="m" x="-1" y="-1" width="263" height="41"><path fill="#fff" d="M-1-1h263v41H-1z"/><use xlink:href="#c"/></mask><rect id="d" width="261" height="39" rx="3"/><mask id="o" x="-1" y="-1" width="263" height="41"><path fill="#fff" d="M-1-1h263v41H-1z"/><use xlink:href="#d"/></mask><rect id="e" width="261" height="39" rx="3"/><mask id="q" x="-1" y="-1" width="263" height="41"><path fill="#fff" d="M-1-1h263v41H-1z"/><use xlink:href="#e"/></mask><rect id="f" width="261" height="193" rx="3"/><mask id="s" x="-1" y="-1" width="263" height="195"><path fill="#fff" d="M-1-1h263v195H-1z"/><use xlink:href="#f"/></mask></defs><g fill="none" fill-rule="evenodd"><g transform="translate(40 40)"><use fill="#000" filter="url(#g)" xlink:href="#h"/><use fill="#FFF" xlink:href="#h"/></g><g transform="translate(58 265)"><mask id="j" fill="#fff"><use xlink:href="#a"/></mask><use fill="#FFF" xlink:href="#a"/><use stroke="#E8EAF0" mask="url(#i)" stroke-width="2" xlink:href="#a"/><path fill="#FA6048" mask="url(#j)" d="M0 0h3v39H0z"/><text mask="url(#j)" font-family="OpenSans-Semibold, Open Sans" font-size="14" font-weight="500" fill="#1F3B5D"><tspan x="12" y="25">Indexing</tspan></text><path stroke="#8090B2" stroke-width="1.5" stroke-linecap="round" stroke-linejoin="round" opacity=".5" mask="url(#j)" d="M245 19l-4 4-4-4"/></g><g transform="translate(58 315)"><mask id="l" fill="#fff"><use xlink:href="#b"/></mask><use fill="#FFF" xlink:href="#b"/><use stroke="#E8EAF0" mask="url(#k)" stroke-width="2" xlink:href="#b"/><path fill="#EC4469" mask="url(#l)" d="M0 0h3v39H0z"/><text mask="url(#l)" font-family="OpenSans-Semibold, Open Sans" font-size="14" font-weight="500" fill="#1F3B5D"><tspan x="12" y="25">Extend</tspan></text><path stroke="#8090B2" stroke-width="1.5" stroke-linecap="round" stroke-linejoin="round" opacity=".5" mask="url(#l)" d="M245 19l-4 4-4-4"/></g><g transform="translate(58 365)"><mask id="n" fill="#fff"><use xlink:href="#c"/></mask><use fill="#FFF" xlink:href="#c"/><use stroke="#E8EAF0" mask="url(#m)" stroke-width="2" xlink:href="#c"/><path fill="#9F3F74" mask="url(#n)" d="M0 0h3v39H0z"/><text mask="url(#n)" font-family="OpenSans-Semibold, Open Sans" font-size="14" font-weight="500" fill="#1F3B5D"><tspan x="12" y="25">Debugging</tspan></text><path stroke="#8090B2" stroke-width="1.5" stroke-linecap="round" stroke-linejoin="round" opacity=".5" mask="url(#n)" d="M245 19l-4 4-4-4"/></g><g transform="translate(58 415)"><mask id="p" fill="#fff"><use xlink:href="#d"/></mask><use fill="#FFF" xlink:href="#d"/><use stroke="#E8EAF0" mask="url(#o)" stroke-width="2" xlink:href="#d"/><path fill="#00C5A5" mask="url(#p)" d="M0 0h3v39H0z"/><text mask="url(#p)" font-family="OpenSans-Semibold, Open Sans" font-size="14" font-weight="500" fill="#1F3B5D"><tspan x="12" y="25">Integrations</tspan></text><path stroke="#8090B2" stroke-width="1.5" stroke-linecap="round" stroke-linejoin="round" opacity=".5" mask="url(#p)" d="M245 19l-4 4-4-4"/></g><g transform="translate(58 465)"><mask id="r" fill="#fff"><use xlink:href="#e"/></mask><use fill="#FFF" xlink:href="#e"/><use stroke="#E8EAF0" mask="url(#q)" stroke-width="2" xlink:href="#e"/><path fill="#00A4BA" mask="url(#r)" d="M0 0h3v39H0z"/><text mask="url(#r)" font-family="OpenSans-Semibold, Open Sans" font-size="14" font-weight="500" fill="#1F3B5D"><tspan x="12" y="25">Other</tspan></text><path stroke="#8090B2" stroke-width="1.5" stroke-linecap="round" stroke-linejoin="round" opacity=".5" mask="url(#r)" d="M245 19l-4 4-4-4"/></g><g transform="translate(58 60)"><mask id="t" fill="#fff"><use xlink:href="#f"/></mask><use fill="#FFF" xlink:href="#f"/><use stroke="#E8EAF0" mask="url(#s)" stroke-width="2" xlink:href="#f"/><path fill="#FFBE4C" mask="url(#t)" d="M0 0h3v193H0z"/><path fill="#F3F4F7" mask="url(#t)" d="M15 39h234v90H15z"/><path fill="#FFBE4C" mask="url(#t)" d="M21 74h6v6h-6z"/><text mask="url(#t)" font-family="OpenSans-Semibold, Open Sans" font-size="14" font-weight="500" fill="#1F3B5D"><tspan x="12" y="25">Getting Started</tspan></text><text mask="url(#t)" font-family="OpenSans-Semibold, Open Sans" font-size="13" font-weight="500" fill="#1F3B5D"><tspan x="21" y="57">Installation</tspan></text><text mask="url(#t)" font-family="OpenSans, Open Sans" font-size="13" fill="#1F3B5D"><tspan x="21" y="151">Configuration</tspan></text><text mask="url(#t)" font-family="OpenSans, Open Sans" font-size="13" fill="#1F3B5D"><tspan x="21" y="175">Customization</tspan></text><text mask="url(#t)" font-family="OpenSans-Semibold, Open Sans" font-size="11.34" font-weight="500" fill="#1F3B5D"><tspan x="35" y="80">Server requirements</tspan></text><text mask="url(#t)" font-family="OpenSans, Open Sans" font-size="11.34" fill="#1F3B5D"><tspan x="35" y="100">Plugin Installation</tspan></text><text mask="url(#t)" font-family="OpenSans, Open Sans" font-size="11.34" fill="#1F3B5D"><tspan x="35" y="120">Conflicting plugins</tspan></text><path stroke="#8090B2" stroke-width="1.5" stroke-linecap="round" stroke-linejoin="round" opacity=".5" mask="url(#t)" transform="rotate(180 241 21)" d="M245 19l-4 4-4-4"/></g></g></svg>