<svg width="46" height="46" viewBox="0 0 46 46" xmlns="http://www.w3.org/2000/svg"><title>logo/algolia-community/mark-sm</title><g fill="none" fill-rule="evenodd"><path fill="#182359" d="M22.627 0l22.628 22.627-22.628 22.628L0 22.627z"/><path fill="#46AEDA" d="M19.092 6.364l3.535-3.536 4.243 4.243-1.414 1.414-2.829-2.828-2.12 2.121z"/><path fill="#FE336F" d="M26.163 38.89l-3.536 3.536-12.02-12.02 1.414-1.415 10.606 10.607 2.122-2.121z"/><path fill="#F5A623" d="M27.577 37.477l14.85-14.85L28.283 8.485 26.87 9.9l12.728 12.728-13.435 13.435z"/><path fill="#50E3C2" d="M9.192 16.263l-6.364 6.364 6.364 6.364 1.415-1.414-4.95-4.95 4.95-4.95z"/><path fill="#BD0FE1" d="M10.607 14.85l7.07-7.072 1.415 1.414-7.071 7.071z"/><path d="M22.669 16.591a6.836 6.836 0 0 0-6.831 6.841 6.83 6.83 0 0 0 6.83 6.834 6.836 6.836 0 0 0 6.832-6.841 6.825 6.825 0 0 0-6.831-6.834zm0 11.657a4.817 4.817 0 0 1-4.814-4.816 4.817 4.817 0 0 1 4.814-4.815 4.817 4.817 0 0 1 4.813 4.815 4.812 4.812 0 0 1-4.813 4.816zm0-8.647v3.59c0 .102.11.175.205.124l3.185-1.652c.073-.036.095-.124.058-.198a3.963 3.963 0 0 0-3.301-2.004c-.074 0-.147.059-.147.14zm-4.461-2.635l-.419-.419a1.045 1.045 0 0 0-1.482 0l-.499.5a1.046 1.046 0 0 0 0 1.482l.411.411c.066.066.162.051.22-.015a8.08 8.08 0 0 1 .8-.94c.3-.3.609-.564.947-.807.073-.044.08-.146.022-.212zm6.699-1.087v-.83c0-.58-.47-1.049-1.05-1.049h-2.443c-.58 0-1.05.47-1.05 1.05v.851c0 .096.089.162.184.14a7.644 7.644 0 0 1 2.128-.301c.697 0 1.387.095 2.055.279a.142.142 0 0 0 .176-.14z" fill="#FFF"/></g></svg>