<svg id="Layer_1" data-name="Layer 1" xmlns="http://www.w3.org/2000/svg" xmlns:xlink="http://www.w3.org/1999/xlink" viewBox="0 0 68.8 99.915"><defs><style>.cls-1{fill:url(#linear-gradient)}.cls-2{fill:url(#Shadow_Gradient)}.cls-3{fill:url(#Shadow_Gradient-2)}.cls-4{fill:url(#linear-gradient-2)}.cls-13,.cls-14,.cls-5,.cls-6{opacity:.58}.cls-5{fill:url(#Shadow_Gradient-3)}.cls-6{fill:url(#Shadow_Gradient-4)}.cls-7{fill:url(#linear-gradient-3)}.cls-8{fill:url(#Shadow_Gradient-5)}.cls-9{fill:url(#linear-gradient-4)}.cls-10{fill:url(#Shadow_Gradient-6)}.cls-11{fill:url(#Shadow_Gradient-7)}.cls-12{fill:url(#linear-gradient-5)}.cls-13{fill:url(#Shadow_Gradient-8)}.cls-14{fill:url(#Shadow_Gradient-9)}.cls-15{fill:url(#linear-gradient-6)}.cls-16{fill:url(#Shadow_Gradient-10)}.cls-17,.cls-18{fill:#032442}.cls-17{fill-opacity:.1}.cls-18,.cls-42{fill-opacity:.2}.cls-19{fill:url(#linear-gradient-7)}.cls-20{fill:url(#linear-gradient-8)}.cls-21{fill:url(#linear-gradient-9)}.cls-22{fill:url(#linear-gradient-10)}.cls-23{fill:url(#linear-gradient-11)}.cls-24{fill:url(#linear-gradient-12)}.cls-25{opacity:.24}.cls-26{fill:url(#Shadow_Gradient-11)}.cls-27{fill:url(#linear-gradient-13)}.cls-28{fill:url(#Highlight_Gradient)}.cls-29{fill:url(#Shadow_Gradient-12)}.cls-30{fill:url(#Shadow_Gradient-13)}.cls-31{fill:url(#Highlight_Gradient-2)}.cls-32{fill:url(#Highlight_Gradient-3)}.cls-33{fill:url(#Highlight_Gradient-4)}.cls-34{fill:url(#linear-gradient-14)}.cls-35{fill:url(#linear-gradient-15)}.cls-36{fill:url(#linear-gradient-16)}.cls-37{fill:url(#linear-gradient-17)}.cls-38{fill:url(#linear-gradient-18)}.cls-39{fill:url(#linear-gradient-19)}.cls-40{fill:url(#linear-gradient-20)}.cls-41{stroke:#cfa575;stroke-miterlimit:10;stroke-width:.264px;fill:url(#linear-gradient-21)}.cls-42{fill:#5b0f0f}.cls-43{fill:url(#linear-gradient-22)}.cls-44{opacity:.23}.cls-45{opacity:.75}.cls-46{fill:url(#linear-gradient-23)}.cls-47,.cls-48,.cls-50{fill:#fff}.cls-47{opacity:.15}.cls-48,.cls-49{opacity:.1}.cls-51{fill:url(#linear-gradient-24)}</style><linearGradient id="linear-gradient" x1="1249.104" y1="938.912" x2="1251.929" y2="940.367" gradientTransform="matrix(-.029 -1 -1 .029 983.254 1264.317)" gradientUnits="userSpaceOnUse"><stop offset="0" stop-color="#d9b78b"/><stop offset=".165" stop-color="#e4c79c"/><stop offset=".402" stop-color="#efd7ac"/><stop offset=".665" stop-color="#f5e0b6"/><stop offset="1" stop-color="#f7e3b9"/></linearGradient><linearGradient id="Shadow_Gradient" x1="2385.91" y1="199.704" x2="2374.155" y2="201.82" gradientTransform="scale(-1 1) rotate(-2.06 -3112.424 66521.8)" gradientUnits="userSpaceOnUse"><stop offset="0" stop-opacity="0"/><stop offset="1" stop-opacity=".4"/></linearGradient><linearGradient id="Shadow_Gradient-2" x1="2381.442" y1="199.504" x2="2380.34" y2="198.579" xlink:href="#Shadow_Gradient"/><linearGradient id="linear-gradient-2" x1="2379.166" y1="197.132" x2="2378.563" y2="194.133" gradientTransform="scale(-1 1) rotate(-2.06 -3112.424 66521.8)" xlink:href="#linear-gradient"/><linearGradient id="Shadow_Gradient-3" x1="1248.358" y1="939.155" x2="1248.174" y2="941.554" gradientTransform="matrix(-.029 -1 -1 .029 983.254 1264.317)" xlink:href="#Shadow_Gradient"/><linearGradient id="Shadow_Gradient-4" x1="1247.475" y1="941.093" x2="1247.326" y2="943.041" gradientTransform="matrix(-.029 -1 -1 .029 983.254 1264.317)" xlink:href="#Shadow_Gradient"/><linearGradient id="linear-gradient-3" x1="2310.014" y1="344.739" x2="2308.985" y2="348.615" gradientTransform="scale(-1 1) rotate(-11.83 -318.866 11416.988)" gradientUnits="userSpaceOnUse"><stop offset="0" stop-color="#a4a0bd"/><stop offset="1" stop-color="#202026"/></linearGradient><linearGradient id="Shadow_Gradient-5" x1="2379.138" y1="195.938" x2="2379.184" y2="205.657" xlink:href="#Shadow_Gradient"/><linearGradient id="linear-gradient-4" x1="1408.149" y1="-1387.05" x2="1410.974" y2="-1385.596" gradientTransform="rotate(-88.05 1476.313 23.169)" xlink:href="#linear-gradient"/><linearGradient id="Shadow_Gradient-6" x1="75.138" y1="-109.729" x2="63.384" y2="-107.614" gradientTransform="rotate(-1.768 5087.169 228.952)" xlink:href="#Shadow_Gradient"/><linearGradient id="Shadow_Gradient-7" x1="70.671" y1="-109.93" x2="69.569" y2="-110.854" gradientTransform="rotate(-1.768 5087.169 228.952)" xlink:href="#Shadow_Gradient"/><linearGradient id="linear-gradient-5" x1="68.394" y1="-112.301" x2="67.792" y2="-115.3" gradientTransform="rotate(-1.768 5087.169 228.952)" xlink:href="#linear-gradient"/><linearGradient id="Shadow_Gradient-8" x1="1407.403" y1="-1386.808" x2="1407.219" y2="-1384.408" gradientTransform="rotate(-88.05 1476.313 23.169)" xlink:href="#Shadow_Gradient"/><linearGradient id="Shadow_Gradient-9" x1="1406.52" y1="-1384.87" x2="1406.371" y2="-1382.922" gradientTransform="rotate(-88.05 1476.313 23.169)" xlink:href="#Shadow_Gradient"/><linearGradient id="linear-gradient-6" x1="36.754" y1="-322.261" x2="35.496" y2="-317.526" gradientTransform="rotate(-12.512 1705.432 -224.078)" xlink:href="#linear-gradient-3"/><linearGradient id="Shadow_Gradient-10" x1="68.367" y1="-113.495" x2="68.413" y2="-103.777" gradientTransform="rotate(-1.768 5087.169 228.952)" xlink:href="#Shadow_Gradient"/><linearGradient id="linear-gradient-7" x1="191.976" y1="-821.37" x2="167.771" y2="-796.235" gradientTransform="rotate(-31.278 1655.39 -141.678)" xlink:href="#linear-gradient-3"/><linearGradient id="linear-gradient-8" x1="174.633" y1="-806.045" x2="174.137" y2="-791.175" gradientTransform="rotate(-31.278 1655.39 -141.678)" xlink:href="#linear-gradient-3"/><linearGradient id="linear-gradient-9" x1="2572.812" y1="624.358" x2="2548.607" y2="649.493" gradientTransform="scale(-1 1) rotate(-31.26 228.665 4960.261)" xlink:href="#linear-gradient-3"/><linearGradient id="linear-gradient-10" x1="2555.469" y1="639.683" x2="2554.973" y2="654.553" gradientTransform="scale(-1 1) rotate(-31.26 228.665 4960.261)" xlink:href="#linear-gradient-3"/><linearGradient id="linear-gradient-11" x1="31.568" y1="-2.078" x2="38.106" y2="61.997" xlink:href="#linear-gradient-3"/><linearGradient id="linear-gradient-12" x1="33.79" y1="29.562" x2="38.629" y2="62.346" xlink:href="#linear-gradient-3"/><linearGradient id="Shadow_Gradient-11" x1="13.641" y1="62.004" x2="41.033" y2="61.68" xlink:href="#Shadow_Gradient"/><linearGradient id="linear-gradient-13" x1="17.417" y1="60.141" x2="41.645" y2="61.257" xlink:href="#linear-gradient-3"/><linearGradient id="Highlight_Gradient" x1="12.567" y1="60.34" x2="41.009" y2="60.005" gradientUnits="userSpaceOnUse"><stop offset="0" stop-color="#fff" stop-opacity=".4"/><stop offset="1" stop-color="#fff" stop-opacity="0"/></linearGradient><linearGradient id="Shadow_Gradient-12" x1="15.316" y1="61.518" x2="36.952" y2="61.263" xlink:href="#Shadow_Gradient"/><linearGradient id="Shadow_Gradient-13" x1="27.538" y1="60.884" x2="43.959" y2="60.69" xlink:href="#Shadow_Gradient"/><linearGradient id="Highlight_Gradient-2" x1="16.366" y1="97.874" x2="37.637" y2="97.623" gradientTransform="rotate(3.09 695.036 63.696)" xlink:href="#Highlight_Gradient"/><linearGradient id="Highlight_Gradient-3" x1="57.99" y1="57.035" x2="39.924" y2="62.462" xlink:href="#Highlight_Gradient"/><linearGradient id="Highlight_Gradient-4" x1="57.742" y1="56.225" x2="39.68" y2="61.651" xlink:href="#Highlight_Gradient"/><linearGradient id="linear-gradient-14" x1="61.351" y1="-102.526" x2="65.362" y2="-101.006" gradientTransform="rotate(51.41 -77.959 -104.255)" xlink:href="#linear-gradient-3"/><linearGradient id="linear-gradient-15" x1="63.2" y1="-104.06" x2="70.602" y2="-102.443" gradientTransform="rotate(51.41 -77.959 -104.255)" xlink:href="#linear-gradient-3"/><linearGradient id="linear-gradient-16" x1="33.18" y1="-272.819" x2="31.145" y2="-271.178" gradientTransform="matrix(-.203 1.106 -1.05 -.449 -266.301 -145.407)" xlink:href="#linear-gradient-3"/><linearGradient id="linear-gradient-17" x1="-82.671" y1="42.88" x2="-76.227" y2="43.128" gradientTransform="rotate(25.712 21.708 204.9)" xlink:href="#linear-gradient-3"/><linearGradient id="linear-gradient-18" x1="63.078" y1="-91.984" x2="70.82" y2="-97.42" gradientTransform="rotate(51.41 -77.959 -104.255)" xlink:href="#linear-gradient-3"/><linearGradient id="linear-gradient-19" x1="62.846" y1="-105.8" x2="60.1" y2="-103.53" gradientTransform="matrix(-.796 .682 -.742 -.732 -24.678 -99.37)" xlink:href="#linear-gradient-3"/><linearGradient id="linear-gradient-20" x1="35.785" y1="71.224" x2="37.378" y2="71.73" gradientTransform="rotate(12.12 297.327 166.28)" xlink:href="#linear-gradient-3"/><linearGradient id="linear-gradient-21" x1="3.979" y1="85.638" x2="35.928" y2="78.509" gradientTransform="rotate(12.12 297.327 166.28)" xlink:href="#linear-gradient"/><linearGradient id="linear-gradient-22" x1="-22.945" y1="48.792" x2="-38.385" y2="126.957" gradientTransform="rotate(5.784 746.073 753.69)" xlink:href="#linear-gradient-3"/><linearGradient id="linear-gradient-23" x1="-1.342" y1="43.318" x2="-.56" y2="81.641" gradientTransform="rotate(12.12 297.327 166.28)" xlink:href="#linear-gradient-3"/><linearGradient id="linear-gradient-24" x1="22.167" y1="-48.183" x2="21.755" y2="-43.052" gradientTransform="translate(22.058 81.049)" gradientUnits="userSpaceOnUse"><stop offset="0"/><stop offset=".096" stop-opacity=".78"/><stop offset="1" stop-opacity="0"/></linearGradient></defs><title>ninja-joy</title><path class="cls-1" d="M11.1 49.4a2.85 2.85 0 0 0 3.215-1.727l.569-1.662a2.067 2.067 0 0 0-1.7-2.7l-5.423-1.187c-1.358-.27-3.243.392-3.661 1.616l-.078 1.094c.12 1.61 2.295 3.318 3.652 3.588z" transform="translate(0 -.085)"/><path class="cls-2" d="M8.955 43.407l5.428 1.182a2.577 2.577 0 0 1 .529.167 1.993 1.993 0 0 1-.023 1.254l-.569 1.662A2.85 2.85 0 0 1 11.1 49.4l-3.43-.977A5.031 5.031 0 0 1 5.7 47.4a2.777 2.777 0 0 1-.485-1.282l.078-1.093c.419-1.225 2.307-1.888 3.662-1.618z" transform="translate(0 -.085)"/><path class="cls-3" d="M7.286 42.07a3.206 3.206 0 0 1 .474.054l5.428 1.182a2.067 2.067 0 0 1 1.7 2.7l-.233.679c-.676.484-1.535-.264-2.537-.736-.909-.427-1.984-1.028-2.142-1.787l-1.534-.272a2.39 2.39 0 0 1-1.156-1.82z" transform="translate(0 -.085)"/><path class="cls-4" d="M12 46.063a2.93 2.93 0 0 1-1.224-2.253L9.1 42.65a2.3 2.3 0 0 1-.385-2.514c.467-.672.737-.873 1.219-.539a22.8 22.8 0 0 1 4.87 3.41 2.3 2.3 0 0 1 .591 3.077c-.613.956-2.213.892-3.395-.021z" transform="translate(0 -.085)"/><path class="cls-5" d="M8.8 45.488C5.564 44.255 5.244 43.1 5.407 42.45a3.744 3.744 0 0 1 .355-.15C5.415 43.829 8.8 45.488 8.8 45.488z" transform="translate(0 -.085)"/><path class="cls-6" d="M4.24 43.442c.433 1.326 2.613 2.747 2.613 2.747a7.283 7.283 0 0 1-2.775-2.145l.021-.3a1.748 1.748 0 0 1 .141-.302z" transform="translate(0 -.085)"/><path class="cls-7" d="M7.173 45.393c2.478 1.239 7.619 1.262 7.606.186-.014-2.639-1.179-3.319-1.179-3.319s4.155 1.289 5.192 1.685c3.906 1.491 6.66 3.565 5.478 7.4s-3.346 2.85-5.7 2.478c-3.091-.488-8.618-4.438-8.618-4.438-.136-.853.112-2.01-2.779-3.992z" transform="translate(0 -.085)"/><path class="cls-8" d="M8.719 40.135l.055-.076a2.532 2.532 0 0 0 .6 1.856l1.672 1.161c-.009.775.692 1.363 1.487 1.976a2.521 2.521 0 0 0 3.241-.347 2.152 2.152 0 0 1-.379 1.378c-.616.956-2.216.891-3.4-.021a2.93 2.93 0 0 1-1.224-2.253L9.1 42.65a2.3 2.3 0 0 1-.381-2.515z" transform="translate(0 -.085)"/><path class="cls-9" d="M61.231 49.065a2.85 2.85 0 0 1-3.206-1.743l-.561-1.665a2.067 2.067 0 0 1 1.713-2.7l5.434-1.155c1.359-.263 3.241.408 3.653 1.634l.072 1.094c-.128 1.61-2.311 3.307-3.67 3.57z" transform="translate(0 -.085)"/><path class="cls-10" d="M63.41 43.083l-5.434 1.155a2.577 2.577 0 0 0-.53.164 1.993 1.993 0 0 0 .017 1.254l.561 1.665a2.85 2.85 0 0 0 3.206 1.743l3.435-.96a5.031 5.031 0 0 0 1.978-1.013 2.777 2.777 0 0 0 .491-1.28l-.072-1.094c-.411-1.225-2.293-1.897-3.652-1.634z" transform="translate(0 -.085)"/><path class="cls-11" d="M65.085 41.755a3.205 3.205 0 0 0-.475.052l-5.434 1.155a2.067 2.067 0 0 0-1.713 2.7l.229.68c.674.487 1.536-.257 2.541-.724.911-.422 1.989-1.018 2.151-1.776l1.536-.268a2.39 2.39 0 0 0 1.165-1.819z" transform="translate(0 -.085)"/><path class="cls-12" d="M60.352 45.725a2.93 2.93 0 0 0 1.235-2.247l1.678-1.153a2.3 2.3 0 0 0 .4-2.512c-.463-.674-.732-.877-1.216-.545a22.8 22.8 0 0 0-4.886 3.386 2.3 2.3 0 0 0-.606 3.074c.607.96 2.208.904 3.395-.003z" transform="translate(0 -.085)"/><path class="cls-13" d="M63.556 45.166c3.24-1.217 3.566-2.371 3.407-3.022a3.744 3.744 0 0 0-.355-.144c.339 1.523-3.052 3.166-3.052 3.166z" transform="translate(0 -.085)"/><path class="cls-14" d="M68.124 43.142c-.439 1.324-2.627 2.735-2.627 2.735a7.283 7.283 0 0 0 2.786-2.132l-.02-.3a1.748 1.748 0 0 0-.139-.303z" transform="translate(0 -.085)"/><path class="cls-15" d="M65.168 45.145c-2.478 1.157-7.578 1.243-7.577.167-.019-2.639 1.133-3.333 1.133-3.333s-4.139 1.341-5.171 1.749c-3.887 1.539-7.11 3.148-7.11 3.148s-7.15 13.791 5.39 8.524a25.891 25.891 0 0 0 4.282-2.254c2.66-1.647 6.344-4.091 6.344-4.091.066-1.927 2.048-1.432 2.709-3.91z" transform="translate(0 -.085)"/><path class="cls-16" d="M63.662 39.813l-.055-.076a2.532 2.532 0 0 1-.613 1.853l-1.678 1.153c0 .775-.7 1.36-1.5 1.969a2.521 2.521 0 0 1-3.239-.363 2.152 2.152 0 0 0 .373 1.38c.611.959 2.212.9 3.4 0a2.93 2.93 0 0 0 1.235-2.247l1.678-1.153a2.3 2.3 0 0 0 .399-2.516z" transform="translate(0 -.085)"/><ellipse class="cls-17" cx="37.119" cy="97.644" rx="31.681" ry="2.271"/><ellipse class="cls-18" cx="37.286" cy="97.584" rx="21.814" ry="1.11"/><path class="cls-19" d="M39.741 57.224l-7.879 11.794s9.98 5.223 12.316 6.524 9.5-2.125 11.978-5.1 2.471-4.668-3.09-5.762l-13.325-7.456z" transform="translate(0 -.085)"/><path class="cls-20" d="M49.708 67.211a12.062 12.062 0 0 0-3.976 8.607c3.071-.124 8.362-2.9 10.423-5.379 2.457-2.949 2.467-4.634-2.933-5.73a14.152 14.152 0 0 0-3.514 2.502z" transform="translate(0 -.085)"/><path class="cls-21" d="M30.179 56.729l7.879 11.793s-9.98 5.223-12.316 6.524-9.5-2.125-11.978-5.1-2.471-4.668 3.09-5.762l13.325-7.455z" transform="translate(0 -.085)"/><path class="cls-22" d="M20.211 66.716a12.062 12.062 0 0 1 3.976 8.607c-3.071-.124-8.362-2.9-10.423-5.379C11.307 67 11.3 65.309 16.7 64.214a14.152 14.152 0 0 1 3.511 2.502z" transform="translate(0 -.085)"/><path class="cls-23" d="M18.814 38.176s.623 33.806 14.156 33.806c19.745 0 19.6-35.912 19.6-35.912s-16.59 6.13-33.756 2.106z" transform="translate(0 -.085)"/><path class="cls-24" d="M32.3 49.461a.71.71 0 0 1 .562-.317.7.7 0 0 1 .786.736q.423 3.211.9 5.449l1.969-4.277a.882.882 0 0 1 .683-.612q.592-.047.74.861a21.252 21.252 0 0 0 .851 3.507 17.841 17.841 0 0 1 1.184-5.647.7.7 0 0 1 .593-.455.731.731 0 0 1 .568.2.831.831 0 0 1 .274.589.975.975 0 0 1-.089.49 13.645 13.645 0 0 0-.868 3.706 21.488 21.488 0 0 0-.247 3.912 1.4 1.4 0 0 1-.1.672.572.572 0 0 1-.479.37.879.879 0 0 1-.711-.38 10.8 10.8 0 0 1-1.994-4.365q-.869 1.971-1.3 2.956-.791 1.738-1.357 1.784a.783.783 0 0 1-.625-.7 49.032 49.032 0 0 1-1.485-7.786.977.977 0 0 1 .145-.693z" transform="translate(0 -.085)"/><path class="cls-25" d="M18.852 39.293c.076 1.778.3 5.5.906 9.812a41.843 41.843 0 0 0 17.054.993 43.121 43.121 0 0 0 15.02-4.416 78.594 78.594 0 0 0 .733-9.333c-4.224 1.242-19.627 5.293-33.713 2.944z" transform="translate(0 -.085)"/><path class="cls-26" d="M22.724 59.911a26.134 26.134 0 0 0 .812 2.549c1.708.734 6.226 1.271 11.536 1.271 5.2 0 9.641-.5 11.426-1.215a26.1 26.1 0 0 0 .839-2.626c-1.646.777-6.543 1.343-12.336 1.343-5.725-.001-10.577-.557-12.277-1.322z" transform="translate(0 -.085)"/><path class="cls-27" d="M35 60.787c-6.4 0-11.707-.694-12.745-1.6l.024.1a.778.778 0 0 0 .2.751l.021.062a1.817 1.817 0 0 0 .47 1.571.109.109 0 0 1 .03.029c1.022.889 6.038 1.583 12.076 1.583 5.861 0 10.759-.638 11.976-1.5a1.239 1.239 0 0 0 .418-1.089 1.253 1.253 0 0 0 .291-.576 2.275 2.275 0 0 0 .057-1c-.855.946-6.265 1.669-12.818 1.669z" transform="translate(0 -.085)"/><path class="cls-28" d="M33.929 61.122c6.393 0 12.522-.8 13.565-1.7.024-.1.049-.192.072-.289-.851.935-6.261 1.658-12.812 1.658-6.4 0-11.707-.694-12.745-1.6a.488.488 0 0 0 .2.242c1.191.875 5.451 1.689 11.72 1.689z" transform="translate(0 -.085)"/><path class="cls-29" d="M22.492 59.988s6.148 3.168 19.466 2.058c0 0-13.5 2.53-19.466-2.058z" transform="translate(0 -.085)"/><path class="cls-30" d="M47.2 60.059a1.087 1.087 0 0 0 .535-.614A43.009 43.009 0 0 1 33 61.343c5.42 1.416 10.508.149 14.2-1.284z" transform="translate(0 -.085)"/><path class="cls-31" d="M22.627 60.309s5.32 3.784 19.052 1.82c-.001 0-12.265 3.317-19.052-1.82z" transform="translate(0 -.085)"/><path class="cls-32" d="M35.545 63.015a23.987 23.987 0 0 0 11.376-2.1 1.182 1.182 0 0 0 .6-.659c-6.156 2.651-10.421 2.814-11.976 2.759z" transform="translate(0 -.085)"/><path class="cls-33" d="M35.545 63.015c-.218-.015-.435-.026-.655-.046 0 0 .227.031.655.046z" transform="translate(0 -.085)"/><path class="cls-34" d="M15.374 15.752S12.286 4.494 9.035 5.877s-4.2 1.889-4.2 1.889S3.5 8.62 4.692 11.2s5.01 6.73 5.01 6.73z" transform="translate(0 -.085)"/><path class="cls-35" d="M9.382 5.778c-.662.438-.176 2.542 1.1 4.738 1.293 2.22 2.9 3.692 3.6 3.287.336-.2.338-.761.133-1.559-1.115-2.993-2.93-6.767-4.833-6.466z" transform="translate(0 -.085)"/><path class="cls-36" d="M13.56 12.755c.377-.219-.286-1.753-1.175-3.587C11.334 7 10.222 6.156 9.845 6.375S9.994 8.2 11.02 9.962s2.163 3.012 2.54 2.793z" transform="translate(0 -.085)"/><path class="cls-37" d="M12.673 15.686S1.766 11.523.96 14.963 0 19.469 0 19.469s-.1 1.585 2.684 2.142 8.39-.064 8.39-.064z" transform="translate(0 -.085)"/><path class="cls-38" d="M3.328 13.612a7.276 7.276 0 0 0-1.356.262A1.543 1.543 0 0 0 .96 14.963L.952 15c.376.721 2.3 1.392 4.651 1.573 2.67.205 4.885-.3 4.948-1.12a.747.747 0 0 0-.315-.59 23.092 23.092 0 0 0-6.908-1.251z" transform="translate(0 -.085)"/><ellipse class="cls-39" cx="4.61" cy="14.972" rx=".86" ry="2.946" transform="rotate(-85.609 4.564 14.93)"/><path class="cls-40" d="M67.091 18.525s-4.382-2.058-4.747-1.933a35.608 35.608 0 0 0-2.944 3.641s6.415 3.284 7.691-1.708z" transform="translate(0 -.085)"/><path class="cls-41" d="M63.859 14.722s3.329 11.218-.164 17.765c0 0-21.421 13.356-46.081.64 0 0-5.385-8.64-1-14.831-.001.004 23.899-9.468 47.245-3.574z" transform="translate(0 -.085)"/><path class="cls-42" d="M42.605 17.866c9.668-.267 16.858-.056 22.461 3.106a29.945 29.945 0 0 0-.964-5.337l-1.068-.459C39.169 10.4 16.613 18.3 16.613 18.3a9 9 0 0 0-1.083 2.053l-.186 7.194a21.532 21.532 0 0 0 2.137 5.36c2.9 1.149 7.329 2.6 5.275-.188-2.956-4.019-.452-9.5-.452-9.5s5.841-4.953 20.301-5.353z" transform="translate(0 -.085)"/><path class="cls-43" d="M20.769 20.685s7.478-3.61 22.329-4.3c17.457-.814 23.993 2.142 23.993 2.142C66.1 16.926 60.859-.093 35.35.086 15.51.226 7.359 14.328 6.357 22.994c-1.55 13.419 10.882 23.012 29.382 23.172 20.741.18 28.213-10.556 30.572-15.609 0 0 3.232-4.146-20.573-3.423-10.562.321-24.828 3.649-24.828 3.649a13.767 13.767 0 0 1-.141-10.098z" transform="translate(0 -.085)"/><path d="M65.337 29.851c-3.95 4.855-10.719 12.724-26.437 12.588-18.5-.16-32.377-11-30.826-24.417.035-.3.079-.6.133-.9a16.917 16.917 0 0 0-1.851 5.876C4.807 36.413 17.239 46.006 35.739 46.166c20.741.18 28.213-10.556 30.572-15.609a1.51 1.51 0 0 0-.974-.706z" transform="translate(0 -.085)" class="cls-44"/><path d="M28.477 24.447a5.588 5.588 0 0 1 1.144-1.33A8.614 8.614 0 0 1 33 21.312l.51-.127.127-.03.145-.025.242-.036a5.842 5.842 0 0 1 1.04-.072 5.6 5.6 0 0 1 1.812.315 3.743 3.743 0 0 1 1.521.943.2.2 0 0 1-.217.311l-.014-.005c.009 0-.142-.053-.406-.126a7.012 7.012 0 0 0-1.1-.205 8 8 0 0 0-1.55 0c-.3.034-.529.054-.859.122l-.24.048-.06.012h-.015.014-.007l-.028.008-.112.028-.452.107a12.8 12.8 0 0 0-1.713.609 11.867 11.867 0 0 0-1.424.726c-.405.241-.732.466-.955.63s-.341.26-.341.26a.286.286 0 0 1-.4-.032.291.291 0 0 1-.041-.326zm28.852-.923a2 2 0 0 0-.234-.237 3.917 3.917 0 0 0-.8-.527 8.318 8.318 0 0 0-1.318-.5 14.964 14.964 0 0 0-1.623-.37 6.781 6.781 0 0 0-.827-.095 7.46 7.46 0 0 0-.809-.02 9.526 9.526 0 0 0-1.452.146c-.427.076-.784.166-1.033.236l-.384.116h-.013a.2.2 0 0 1-.2-.325A4.725 4.725 0 0 1 50 21.082a6.485 6.485 0 0 1 1.6-.469 8.667 8.667 0 0 1 .949-.081 7.91 7.91 0 0 1 .981.063 7.761 7.761 0 0 1 .953.181 6.617 6.617 0 0 1 .9.283 5.321 5.321 0 0 1 1.487.838 3.122 3.122 0 0 1 .814.956 1.819 1.819 0 0 1 .141.345.9.9 0 0 1 .036.143.281.281 0 0 1-.532.183z" transform="translate(0 -.085)" class="cls-45"/><path class="cls-46" d="M30.233 4.157s-6.151 4.38-9.465 16.528l1.89-.754a31.069 31.069 0 0 1 7.575-15.774z" transform="translate(0 -.085)"/><path class="cls-25" d="M66.32 17.04s-13.033-4.023-35.3-.2c0 0 11.423-4.036 34.531-1.128zM17.664 9.53s-7.593 10.07 1.3 23.432c-.002 0-11.933-10.693-1.3-23.432z" transform="translate(0 -.085)"/><path class="cls-47" d="M16.81 10.13s-8.781 9.138.172 21.484c0-.001-10.082-10.295-.172-21.484zm11.917-5.269S13.756 17.6 21 33.044c0 0-4.884-14.06 7.727-28.183z" transform="translate(0 -.085)"/><path class="cls-48" d="M31.513 16.016s13.2-4.565 32.97-1.857l.739 1.052a77.974 77.974 0 0 0-33.709.805zm-1.359-8.885S45.48 2.667 55.732 5.587l.968.77s-5.795-3.633-26.546.774z" transform="translate(0 -.085)"/><g class="cls-49"><path class="cls-50" d="M40.662 34.736l.188.39a5.381 5.381 0 0 0 .595.935 3.114 3.114 0 0 0 1.193.888 2.935 2.935 0 0 0 .814.206 5.262 5.262 0 0 0 .892.01 3.549 3.549 0 0 0 .868-.143 3.2 3.2 0 0 0 1.849-1.392 4.134 4.134 0 0 0 .459-1.011 3.5 3.5 0 0 0 .105-.414.049.049 0 0 1 .1.005 2.649 2.649 0 0 1-.027.447 3.888 3.888 0 0 1-.337 1.136 3.388 3.388 0 0 1-1.109 1.3 3.546 3.546 0 0 1-.885.419 4.185 4.185 0 0 1-.987.2 3.78 3.78 0 0 1-1-.015 3.462 3.462 0 0 1-.948-.272 3.051 3.051 0 0 1-1.3-1.128 4.066 4.066 0 0 1-.492-1.083 3.906 3.906 0 0 1-.108-.429.07.07 0 0 1 .054-.083.074.074 0 0 1 .076.034z" transform="translate(0 -.085)"/></g><ellipse class="cls-51" cx="44.171" cy="33.543" rx="2.41" ry="2.692" transform="rotate(-4.514 43.1 33.502)"/></svg>